<svg xmlns="http://www.w3.org/2000/svg" width="366" height="442.859" viewBox="0 0 366 442.859">
  <g id="bigBox" transform="translate(0 -3.409)" fill="#fff">
    <path d="M 336.1582641601563 445.51806640625 L 29.84172248840332 445.51806640625 C 25.90099906921387 445.51806640625 22.07927703857422 444.8534545898438 18.48277854919434 443.5427856445313 C 15.01477813720703 442.2788391113281 11.90166664123535 440.4707641601563 9.229999542236328 438.1687622070313 C 6.566444396972656 435.873779296875 4.476555347442627 433.2038879394531 3.018388986587524 430.2333374023438 C 1.513166666030884 427.1670532226563 0.75 423.910888671875 0.75 420.5552062988281 L 0.75 26.54377365112305 C 0.75 23.23905181884766 1.571666717529297 20.13288497924805 3.192111015319824 17.31160736083984 C 4.7311110496521 14.63216304779053 6.954500198364258 12.26138591766357 9.800444602966309 10.26521873474121 C 12.57638931274414 8.318107604980469 15.83811092376709 6.798274517059326 19.49505615234375 5.747829914093018 C 23.15234565734863 4.697266578674316 27.04272079467773 4.162826061248779 31.05902481079102 4.15918493270874 C 31.6844310760498 4.230350494384766 39.77706146240234 5.192287921905518 52.00811004638672 8.551441192626953 C 64.74089050292969 12.04835224151611 331.296630859375 89.864013671875 334.2789306640625 90.73464965820313 C 338.2785949707031 91.94760894775391 342.0083618164063 93.33625793457031 345.3646240234375 94.8619384765625 C 349.2222290039063 96.61555480957031 352.5858459472656 98.55244445800781 355.362060546875 100.6187744140625 C 361.9232177734375 105.5022201538086 365.25 111.1128845214844 365.25 117.2949981689453 L 365.25 420.5552062988281 C 365.25 423.910888671875 364.4868469238281 427.1670532226563 362.9815979003906 430.2333374023438 C 361.5234375 433.2038879394531 359.4335632324219 435.873779296875 356.7699890136719 438.1687622070313 C 354.0983276367188 440.4707641601563 350.9852294921875 442.2788391113281 347.5172119140625 443.5427856445313 C 343.9207153320313 444.8534545898438 340.0989990234375 445.51806640625 336.1582641601563 445.51806640625 Z" stroke="none"/>
    <path d="M 31.01657104492188 4.90924072265625 C 27.08551025390625 4.9166259765625 23.27911376953125 5.441162109375 19.70211791992188 6.468658447265625 C 16.12527465820313 7.49609375 12.93878173828125 8.980010986328125 10.23110961914063 10.87921142578125 C 7.47576904296875 12.81182861328125 5.326324462890625 15.10165405273438 3.842498779296875 17.68511962890625 C 2.288116455078125 20.39132690429688 1.5 23.371826171875 1.5 26.54376220703125 L 1.5 420.5552062988281 C 1.5 423.7953186035156 2.237396240234375 426.9403381347656 3.691619873046875 429.90283203125 C 5.105010986328125 432.7820434570313 7.13311767578125 435.3720092773438 9.71954345703125 437.6006164550781 C 12.322265625 439.8432312011719 15.3570556640625 441.6053161621094 18.7396240234375 442.8381042480469 C 22.25357055664063 444.1187133789063 25.98883056640625 444.76806640625 29.84173583984375 444.76806640625 L 336.1582641601563 444.76806640625 C 340.0111694335938 444.76806640625 343.7464599609375 444.1187133789063 347.2603759765625 442.8381042480469 C 350.6429443359375 441.6053161621094 353.677734375 439.8432312011719 356.2804565429688 437.6006164550781 C 358.8668823242188 435.3720092773438 360.8949890136719 432.7820434570313 362.3083801269531 429.90283203125 C 363.7626037597656 426.9403381347656 364.5 423.7953186035156 364.5 420.5552062988281 L 364.5 117.2949829101563 C 364.5 102.8442993164063 345.4369812011719 94.9029541015625 334.0670471191406 91.4541015625 C 330.9888916015625 90.55545043945313 64.5341796875 12.76931762695313 51.8094482421875 9.274658203125 C 39.8516845703125 5.99053955078125 31.8734130859375 5.008819580078125 31.01657104492188 4.90924072265625 M 31.10040283203125 3.409149169921875 C 31.10040283203125 3.409149169921875 39.3138427734375 4.287261962890625 52.20672607421875 7.828216552734375 C 65.099609375 11.36911010742188 334.4937133789063 90.01605224609375 334.4937133789063 90.01605224609375 C 349.3284301757813 94.51449584960938 366 103.0941772460938 366 117.2949829101563 L 366 420.5552062988281 C 366 434.7560424804688 352.639404296875 446.26806640625 336.1582641601563 446.26806640625 L 29.84173583984375 446.26806640625 C 13.36062622070313 446.26806640625 0 434.7560424804688 0 420.5552062988281 L 0 26.54376220703125 C 0 12.34298706054688 14.6192626953125 3.409149169921875 31.10040283203125 3.409149169921875 Z" stroke="none" fill="#304ffe"/>
  </g>
</svg>
