<svg xmlns="http://www.w3.org/2000/svg" width="38" height="38" viewBox="0 0 38 38">
  <g id="convenient" transform="translate(-4.34 1)">
    <g id="Group_1200" data-name="Group 1200" transform="translate(5.34)">
      <g id="Group_1199" data-name="Group 1199" transform="translate(0)">
        <path id="Path_453" data-name="Path 453" d="M82.466,18.834v.018a6.935,6.935,0,0,1,1,3.594v1.391a27.859,27.859,0,0,1,9.539-1.585,28.443,28.443,0,0,1,9.667,1.581l.012-1.388a7.559,7.559,0,0,1,1.031-3.927L105.2,9.288a7.505,7.505,0,0,0-1.87-6.378A9.436,9.436,0,0,0,96.326,0h-6.5a9.419,9.419,0,0,0-7.009,2.912A7.511,7.511,0,0,0,80.95,9.289Z" transform="translate(-75.01)" fill="#f1f1f1" stroke="#304ffe" stroke-width="2"/>
        <path id="Path_454" data-name="Path 454" d="M38.816,224c-2.8,0-4.265,2.585-4.265,5.138v1.53a1.652,1.652,0,0,1-.727,1.391,1.432,1.432,0,0,1-1.312.121,25.258,25.258,0,0,0-9.172-1.587A24.867,24.867,0,0,0,14.3,232.18a1.431,1.431,0,0,1-1.313-.12,1.658,1.658,0,0,1-.727-1.391v-1.53A4.872,4.872,0,0,0,7.578,224c-1.448,0-2.238,1.648-2.238,2.489A2.985,2.985,0,0,0,7,229.044c.093.04.2.082.306.12.833.32,2.383.914,2.383,2.622V235.1c0,1.236.277,3.956,2.59,4.468a.761.761,0,0,0-.019.091v1.648a.841.841,0,0,0,.857.824h.857a.841.841,0,0,0,.857-.824v-1.647H31.98v1.648a.841.841,0,0,0,.857.824h.857a.841.841,0,0,0,.857-.824v-1.648c0-.023-.012-.043-.014-.065,2.111-.387,2.585-2.6,2.585-4.493v-3.313c0-1.709,1.543-2.3,2.373-2.623.107-.041.208-.082.3-.12a2.9,2.9,0,0,0,1.543-2.555A2.856,2.856,0,0,0,38.816,224Z" transform="translate(-5.34 -206.132)" fill="#f1f1f1" stroke="#304ffe" stroke-width="2"/>
      </g>
    </g>
  </g>
</svg>
