<svg id="edit" xmlns="http://www.w3.org/2000/svg" width="34" height="30" viewBox="0 0 34 30">
  <path id="Path_481" data-name="Path 481" d="M191.827,383.826H172.165a1.512,1.512,0,1,1,0-3.025h19.662a1.512,1.512,0,1,1,0,3.025Zm0,0" transform="translate(-159.34 -353.826)" fill="#304ffe"/>
  <path id="Path_482" data-name="Path 482" d="M285.97,3.322l-2.139-2.139a3.1,3.1,0,0,0-4.277,0l-3.128,3.128,6.416,6.416L285.97,7.6a3.023,3.023,0,0,0,0-4.277Zm0,0" transform="translate(-257.614 -0.326)" fill="#304ffe"/>
  <path id="Path_483" data-name="Path 483" d="M17.458,86.719,1.87,102.307a.742.742,0,0,0-.2.361l-1.649,7a.757.757,0,0,0,.909.911l7-1.649a.752.752,0,0,0,.361-.2L23.874,93.137Zm0,0" transform="translate(0 -80.594)" fill="#304ffe"/>
</svg>
