<svg xmlns="http://www.w3.org/2000/svg" xmlns:xlink="http://www.w3.org/1999/xlink" width="190" height="204.063" viewBox="0 0 190 204.063">
  <defs>
    <filter id="Path_449" x="0" y="0" width="190" height="204.063" filterUnits="userSpaceOnUse">
      <feOffset dy="3" input="SourceAlpha"/>
      <feGaussianBlur stdDeviation="10" result="blur"/>
      <feFlood flood-opacity="0.251"/>
      <feComposite operator="in" in2="blur"/>
      <feComposite in="SourceGraphic"/>
    </filter>
  </defs>
  <g id="fbBox" transform="translate(-678 -1001)">
    <g transform="matrix(1, 0, 0, 1, 678, 1001)" filter="url(#Path_449)">
      <path id="Path_449-2" data-name="Path 449" d="M28.237-42.2l82.025,21.814C119.8-18.364,130-11.361,130-2.311V84.7c0,9.049-8.837,16.385-19.738,16.385H19.738C8.837,101.083,0,93.747,0,84.7V-23.781C0-48.752,28.237-42.2,28.237-42.2Z" transform="translate(30 69.98)" fill="#fff"/>
    </g>
    <path id="Path_463" data-name="Path 463" d="M1.42,0H3.76V-5.76h6.66V-7.82H3.76v-3.46h6.8v-2.06H1.42ZM18.5,0h2.1V-6.4c0-2.6-1.88-3.5-4.02-3.5a5.745,5.745,0,0,0-4.06,1.56l.86,1.46A3.955,3.955,0,0,1,16.24-8.1c1.34,0,2.26.68,2.26,1.8v1.44A3.993,3.993,0,0,0,15.38-6.1a3.111,3.111,0,0,0-3.36,3.14A3.209,3.209,0,0,0,15.38.24,4.078,4.078,0,0,0,18.5-1.04Zm0-2.2a2.828,2.828,0,0,1-2.3,1,1.831,1.831,0,0,1-2.06-1.72A1.833,1.833,0,0,1,16.2-4.66a2.828,2.828,0,0,1,2.3,1Zm4.22-2.64a4.853,4.853,0,0,0,5,5.08,4.332,4.332,0,0,0,3.7-1.72L30.04-2.76a2.626,2.626,0,0,1-2.22,1.14A2.933,2.933,0,0,1,24.9-4.84a2.916,2.916,0,0,1,2.92-3.2A2.578,2.578,0,0,1,30.04-6.9l1.38-1.28a4.332,4.332,0,0,0-3.7-1.72A4.848,4.848,0,0,0,22.72-4.84Zm9.94,0A4.856,4.856,0,0,0,37.72.24a5.631,5.631,0,0,0,3.92-1.4l-.96-1.38a4.088,4.088,0,0,1-2.74,1.06,2.926,2.926,0,0,1-3.08-2.66h7.46v-.5c0-3.04-1.86-5.26-4.76-5.26A4.882,4.882,0,0,0,32.66-4.84Zm4.9-3.34a2.584,2.584,0,0,1,2.72,2.56H34.84A2.665,2.665,0,0,1,37.56-8.18ZM44.4,0h2.1V-1.32A3.883,3.883,0,0,0,49.6.24c2.46,0,4.28-1.88,4.28-5.06,0-3.12-1.8-5.08-4.28-5.08a3.82,3.82,0,0,0-3.1,1.58v-5.02H44.4Zm2.1-2.9V-6.72a3.152,3.152,0,0,1,2.48-1.32c1.68,0,2.74,1.34,2.74,3.22s-1.06,3.2-2.74,3.2A3.117,3.117,0,0,1,46.5-2.9ZM60.38.24a4.834,4.834,0,0,0,4.98-5.08A4.829,4.829,0,0,0,60.38-9.9a4.836,4.836,0,0,0-4.96,5.06A4.841,4.841,0,0,0,60.38.24Zm0-1.86c-1.78,0-2.78-1.5-2.78-3.22,0-1.7,1-3.2,2.78-3.2,1.8,0,2.8,1.5,2.8,3.2C63.18-3.12,62.18-1.62,60.38-1.62ZM71.84.24a4.834,4.834,0,0,0,4.98-5.08A4.829,4.829,0,0,0,71.84-9.9a4.836,4.836,0,0,0-4.96,5.06A4.841,4.841,0,0,0,71.84.24Zm0-1.86c-1.78,0-2.78-1.5-2.78-3.22,0-1.7,1-3.2,2.78-3.2,1.8,0,2.8,1.5,2.8,3.2C74.64-3.12,73.64-1.62,71.84-1.62ZM85.34,0h2.64l-4.1-5.28L87.9-9.66H85.3L81.04-5v-8.34h-2.1V0h2.1V-2.6l1.34-1.38Z" transform="translate(723 1153)" fill="#304ffe"/>
    <path id="Path_464" data-name="Path 464" d="M.608-1.5A5.285,5.285,0,0,0,4.7.192c2.88,0,3.936-1.584,3.936-3.136,0-2.24-1.984-2.784-3.728-3.248C3.552-6.56,2.32-6.88,2.32-7.952c0-1.008.912-1.7,2.192-1.7A4.084,4.084,0,0,1,7.6-8.368l.8-.976a5.018,5.018,0,0,0-3.792-1.488c-2.1,0-3.664,1.2-3.664,2.96,0,2.1,1.9,2.576,3.616,3.024,1.408.384,2.7.736,2.7,2.016,0,.816-.608,1.84-2.512,1.84a4.511,4.511,0,0,1-3.36-1.52ZM15.808,0h1.2V-5.456A2.174,2.174,0,0,0,14.544-7.92a3.84,3.84,0,0,0-2.768,1.312v-4.064h-1.2V0h1.2V-5.648a3.037,3.037,0,0,1,2.288-1.2c1.04,0,1.744.4,1.744,1.76ZM24.24,0h1.2V-5.312c0-1.872-1.36-2.608-2.992-2.608A4.045,4.045,0,0,0,19.36-6.64l.56.832A3.07,3.07,0,0,1,22.288-6.88c1.12,0,1.952.592,1.952,1.632v1.392a3.231,3.231,0,0,0-2.56-1.056,2.531,2.531,0,0,0-2.7,2.544,2.573,2.573,0,0,0,2.7,2.56A3.343,3.343,0,0,0,24.24-.88Zm0-1.632a2.588,2.588,0,0,1-2.128.96,1.732,1.732,0,0,1-1.9-1.68,1.735,1.735,0,0,1,1.9-1.7,2.588,2.588,0,0,1,2.128.96ZM27.84,0h1.2V-5.472a2.827,2.827,0,0,1,2.1-1.232,2.115,2.115,0,0,1,.48.048V-7.888A3.285,3.285,0,0,0,29.04-6.48V-7.728h-1.2Zm4.832-3.872A3.832,3.832,0,0,0,36.608.192,4.2,4.2,0,0,0,39.68-.992L39.1-1.776A3.378,3.378,0,0,1,36.72-.8a2.723,2.723,0,0,1-2.784-2.672h6.256v-.3c0-2.32-1.376-4.144-3.712-4.144A3.864,3.864,0,0,0,32.672-3.872Zm3.792-3.056a2.5,2.5,0,0,1,2.544,2.576H33.936A2.578,2.578,0,0,1,36.464-6.928Z" transform="translate(723 1127)"/>
    <g id="Ellipse_103" data-name="Ellipse 103" transform="translate(723 1052)" fill="#fff" stroke="#304ffe" stroke-width="1.5">
      <circle cx="25" cy="25" r="25" stroke="none"/>
      <circle cx="25" cy="25" r="24.25" fill="none"/>
    </g>
    <path id="facebook" d="M12.62,12.375l.611-3.981H9.411V5.81a1.991,1.991,0,0,1,2.245-2.151h1.737V.269A21.18,21.18,0,0,0,10.309,0c-3.146,0-5.2,1.907-5.2,5.359V8.394h-3.5v3.981h3.5V22h4.3V12.375Z" transform="translate(740.391 1066)" fill="#304ffe"/>
  </g>
</svg>
