<svg xmlns="http://www.w3.org/2000/svg" width="22" height="22" viewBox="0 0 22 22">
  <g id="instagram" transform="translate(-4.5 -4.5)">
    <path id="Path_450" data-name="Path 450" d="M20.083,6.333a4.6,4.6,0,0,1,4.583,4.583v9.167a4.6,4.6,0,0,1-4.583,4.583H10.917a4.6,4.6,0,0,1-4.583-4.583V10.917a4.6,4.6,0,0,1,4.583-4.583h9.167m0-1.833H10.917A6.436,6.436,0,0,0,4.5,10.917v9.167A6.436,6.436,0,0,0,10.917,26.5h9.167A6.436,6.436,0,0,0,26.5,20.083V10.917A6.436,6.436,0,0,0,20.083,4.5Z" fill="#304ffe"/>
    <path id="Path_451" data-name="Path 451" d="M25,11.75a1.375,1.375,0,1,1,1.375-1.375A1.372,1.372,0,0,1,25,11.75Z" transform="translate(-3.542 -0.833)" fill="#304ffe"/>
    <path id="Path_452" data-name="Path 452" d="M16.75,13.083a3.667,3.667,0,1,1-3.667,3.667,3.67,3.67,0,0,1,3.667-3.667m0-1.833a5.5,5.5,0,1,0,5.5,5.5,5.5,5.5,0,0,0-5.5-5.5Z" transform="translate(-1.25 -1.25)" fill="#304ffe"/>
  </g>
</svg>
