<svg xmlns="http://www.w3.org/2000/svg" xmlns:xlink="http://www.w3.org/1999/xlink" width="190" height="204.063" viewBox="0 0 190 204.063">
  <defs>
    <filter id="Path_447" x="0" y="0" width="190" height="204.063" filterUnits="userSpaceOnUse">
      <feOffset dy="3" input="SourceAlpha"/>
      <feGaussianBlur stdDeviation="10" result="blur"/>
      <feFlood flood-opacity="0.251"/>
      <feComposite operator="in" in2="blur"/>
      <feComposite in="SourceGraphic"/>
    </filter>
  </defs>
  <g id="instaBox" transform="translate(-838 -1001)">
    <g transform="matrix(1, 0, 0, 1, 838, 1001)" filter="url(#Path_447)">
      <path id="Path_447-2" data-name="Path 447" d="M28.237-42.2l82.025,21.814C119.8-18.364,130-11.361,130-2.311V84.7c0,9.049-8.837,16.385-19.738,16.385H19.738C8.837,101.083,0,93.747,0,84.7V-23.781C0-48.752,28.237-42.2,28.237-42.2Z" transform="translate(30 69.98)" fill="#fff"/>
    </g>
    <text id="Instagram" transform="translate(883 1153)" fill="#304ffe" font-size="20" font-family="ProximaNova-Semibold, Proxima Nova" font-weight="600"><tspan x="0" y="0">Instagram</tspan></text>
    <text id="Follow" transform="translate(883 1127)" font-size="16" font-family="ProximaNova-Regular, Proxima Nova"><tspan x="0" y="0">Follow</tspan></text>
    <g id="Ellipse_104" data-name="Ellipse 104" transform="translate(883 1052)" fill="#fff" stroke="#304ffe" stroke-width="1.5">
      <circle cx="25" cy="25" r="25" stroke="none"/>
      <circle cx="25" cy="25" r="24.25" fill="none"/>
    </g>
    <g id="instagram-2" data-name="instagram" transform="translate(892.5 1061.5)">
      <path id="Path_450" data-name="Path 450" d="M20.083,6.333a4.6,4.6,0,0,1,4.583,4.583v9.167a4.6,4.6,0,0,1-4.583,4.583H10.917a4.6,4.6,0,0,1-4.583-4.583V10.917a4.6,4.6,0,0,1,4.583-4.583h9.167m0-1.833H10.917A6.436,6.436,0,0,0,4.5,10.917v9.167A6.436,6.436,0,0,0,10.917,26.5h9.167A6.436,6.436,0,0,0,26.5,20.083V10.917A6.436,6.436,0,0,0,20.083,4.5Z" fill="#304ffe"/>
      <path id="Path_451" data-name="Path 451" d="M25,11.75a1.375,1.375,0,1,1,1.375-1.375A1.372,1.372,0,0,1,25,11.75Z" transform="translate(-3.542 -0.833)" fill="#304ffe"/>
      <path id="Path_452" data-name="Path 452" d="M16.75,13.083a3.667,3.667,0,1,1-3.667,3.667,3.67,3.67,0,0,1,3.667-3.667m0-1.833a5.5,5.5,0,1,0,5.5,5.5,5.5,5.5,0,0,0-5.5-5.5Z" transform="translate(-1.25 -1.25)" fill="#304ffe"/>
    </g>
  </g>
</svg>
