<svg id="secure" xmlns="http://www.w3.org/2000/svg" width="30" height="30" viewBox="0 0 30 30">
  <g id="Group_1235" data-name="Group 1235" transform="translate(20.565 6.429)">
    <g id="Group_1234" data-name="Group 1234" transform="translate(0 0)">
      <circle id="Ellipse_116" data-name="Ellipse 116" cx="1.5" cy="1.5" r="1.5" fill="#304ffe"/>
    </g>
  </g>
  <g id="Group_1237" data-name="Group 1237" transform="translate(0 0)">
    <g id="Group_1236" data-name="Group 1236">
      <path id="Path_480" data-name="Path 480" d="M29.676,9.788a17.1,17.1,0,0,0-3.686-5.8A16.7,16.7,0,0,0,20.236.376a4.71,4.71,0,0,0-5,1.06l-4.6,4.581a4.691,4.691,0,0,0-.978,5.2c.242.543.5,1.075.785,1.588l-10.1,10.1A1.172,1.172,0,0,0,0,23.737v5.158a1.172,1.172,0,0,0,1.172,1.172H6.328A1.172,1.172,0,0,0,7.5,28.895v-2.11H9.609a1.172,1.172,0,0,0,1.172-1.172V23.5h2.109a1.172,1.172,0,0,0,0-2.344H9.609a1.172,1.172,0,0,0-1.172,1.172v2.11H6.328a1.172,1.172,0,0,0-1.172,1.172v2.11H2.344v-3.5L12.736,13.828a1.172,1.172,0,0,0,.173-1.437A18.971,18.971,0,0,1,11.8,10.265a2.334,2.334,0,0,1,.49-2.586l4.6-4.581A2.364,2.364,0,0,1,19.4,2.566a14.347,14.347,0,0,1,4.937,3.086,14.748,14.748,0,0,1,3.158,4.993,2.328,2.328,0,0,1-.525,2.5l-4.657,4.637a2.359,2.359,0,0,1-2.579.5,15.209,15.209,0,0,1-2.109-1.076,1.172,1.172,0,0,0-1.226,2,17.562,17.562,0,0,0,2.435,1.243,4.7,4.7,0,0,0,5.132-1.006l4.657-4.637A4.672,4.672,0,0,0,29.676,9.788Z" transform="translate(0 -0.067)" fill="#304ffe"/>
    </g>
  </g>
</svg>
