<svg xmlns="http://www.w3.org/2000/svg" width="38.02" height="38.021" viewBox="0 0 38.02 38.021">
  <path id="send" d="M14.944,29.309a1.161,1.161,0,0,0-1.642,0l-3.043,3.043A1.161,1.161,0,0,0,11.9,33.993l3.043-3.043A1.16,1.16,0,0,0,14.944,29.309ZM6.691,21.056a1.16,1.16,0,0,0-1.642,0L2.007,24.1a1.161,1.161,0,1,0,1.642,1.642L6.691,22.7a1.161,1.161,0,0,0,0-1.642Zm5.5,2.751a1.162,1.162,0,0,0-1.642,0L2.84,31.517A1.161,1.161,0,1,0,4.482,33.16l7.711-7.711A1.161,1.161,0,0,0,12.193,23.807ZM35.941,1.523l-11,33.677a1.162,1.162,0,0,1-2.108.223L15.429,22.7A1.161,1.161,0,0,1,15.5,21.42l2.657-3.577L14.579,20.5a1.161,1.161,0,0,1-1.276.071L.577,13.171A1.162,1.162,0,0,1,.8,11.063l33.677-11a1.163,1.163,0,0,1,1.465,1.465Z" transform="translate(1.003 1.017)" fill="#f1f1f1" stroke="#304ffe" stroke-width="2"/>
</svg>
