<svg xmlns="http://www.w3.org/2000/svg" width="30" height="30" viewBox="0 0 30 30">
  <g id="signature" transform="translate(0 0.02)">
    <path id="Path_465" data-name="Path 465" d="M25.572,9.568l-.937.936a10.8,10.8,0,0,0-3.712-.649A10.952,10.952,0,0,0,9.985,20.781a10.764,10.764,0,0,0,.65,3.708L9.11,26.012,5.8,22.7,2.56,19.47l.1-.1L18.322,3.737l.688-.687L22.172,6.2,25.56,9.555Z" transform="translate(0.64 0.767)" fill="#304ffe"/>
    <path id="Path_466" data-name="Path 466" d="M2.678,17.2.05,24.438a.96.96,0,0,0,.225.988.937.937,0,0,0,.662.275.979.979,0,0,0,.325-.05l7.242-2.627Z" transform="translate(0 4.279)" fill="#304ffe"/>
    <path id="Path_467" data-name="Path 467" d="M24.5,1.33A4.832,4.832,0,0,0,21.208-.02a4.631,4.631,0,0,0-3.262,1.387L16.419,2.926a.031.031,0,0,0,.009.005l3.163,3.15,3.386,3.36s0,.006.006.009l1.55-1.582A4.569,4.569,0,0,0,25.87,4.63V4.58A4.539,4.539,0,0,0,24.5,1.33Z" transform="translate(4.105)" fill="#304ffe"/>
    <path id="Subtraction_1" data-name="Subtraction 1" d="M-624-3328.02a9.01,9.01,0,0,1-9-9,9.01,9.01,0,0,1,9-9,9.01,9.01,0,0,1,9,9A9.01,9.01,0,0,1-624-3328.02Zm-1.657-6.57h2.376l-.233,1.209a.678.678,0,0,0,.145.61.765.765,0,0,0,.608.251.762.762,0,0,0,.485-.154.638.638,0,0,0,.239-.4l.292-1.517h.94a.871.871,0,0,0,.558-.18.569.569,0,0,0,.224-.463.637.637,0,0,0-.224-.5.814.814,0,0,0-.558-.2h-.681l.431-2.237h.772a.867.867,0,0,0,.558-.181.568.568,0,0,0,.224-.462.64.64,0,0,0-.224-.5.817.817,0,0,0-.558-.2h-.514l.223-1.157a.68.68,0,0,0-.145-.61.748.748,0,0,0-.594-.251.817.817,0,0,0-.492.147.608.608,0,0,0-.247.405l-.283,1.466h-2.375l.223-1.157a.682.682,0,0,0-.145-.61.766.766,0,0,0-.609-.251.793.793,0,0,0-.478.147.611.611,0,0,0-.247.405l-.283,1.466h-.934a.864.864,0,0,0-.558.18.566.566,0,0,0-.225.462.638.638,0,0,0,.225.5.81.81,0,0,0,.558.2h.676l-.431,2.237h-.781a.868.868,0,0,0-.558.18.57.57,0,0,0-.225.464.637.637,0,0,0,.225.495.814.814,0,0,0,.558.2h.523l-.233,1.209a.726.726,0,0,0,.152.61.727.727,0,0,0,.587.251.791.791,0,0,0,.492-.154.618.618,0,0,0,.247-.4l.292-1.517Zm2.634-1.337H-625.4l.432-2.237h2.375l-.431,2.236Z" transform="translate(645 3358)" fill="#304ffe"/>
  </g>
</svg>
