<svg id="temepered" xmlns="http://www.w3.org/2000/svg" width="30" height="30" viewBox="0 0 30 30">
  <path id="Path_469" data-name="Path 469" d="M200.024,10.279a.583.583,0,0,0,.824,0L205.7,5.425a3.711,3.711,0,0,1,5.249,5.247L206.1,15.528a.579.579,0,0,0,0,.819l1.994,1.993a.583.583,0,0,0,.824,0l5.11-5.107A7.692,7.692,0,0,0,203.142,2.357l-5.112,5.11a.579.579,0,0,0,0,.819Z" transform="translate(-186.277 -0.104)" fill="#304ffe"/>
  <path id="Path_470" data-name="Path 470" d="M16.062,209.4a.583.583,0,0,0-.824,0l-4.665,4.663a3.711,3.711,0,0,1-5.249-5.247l4.667-4.665a.579.579,0,0,0,0-.819L8,201.337a.583.583,0,0,0-.824,0l-4.919,4.917A7.692,7.692,0,0,0,13.135,217.13l4.921-4.919a.579.579,0,0,0,0-.819Z" transform="translate(-0.001 -189.383)" fill="#304ffe"/>
  <path id="Path_471" data-name="Path 471" d="M.878,140.578l4.13,1.032a.879.879,0,0,0,.426-1.706L1.3,138.872a.879.879,0,0,0-.426,1.706Z" transform="translate(-0.2 -130.715)" fill="#304ffe"/>
  <path id="Path_472" data-name="Path 472" d="M62.4,63.72a.879.879,0,0,0,1.243-1.243l-3.2-3.2A.879.879,0,1,0,59.2,60.52Z" transform="translate(-55.486 -55.567)" fill="#304ffe"/>
  <path id="Path_473" data-name="Path 473" d="M139.859,5.539a.879.879,0,0,0,1.706-.427L140.532.985a.879.879,0,0,0-1.706.427Z" transform="translate(-130.669 -0.306)" fill="#304ffe"/>
  <path id="Path_474" data-name="Path 474" d="M416.635,326.7l-4.13-1.032a.879.879,0,0,0-.426,1.706l4.13,1.032a.879.879,0,1,0,.426-1.706Z" transform="translate(-387.314 -306.563)" fill="#304ffe"/>
  <path id="Path_475" data-name="Path 475" d="M370.051,368.75a.879.879,0,1,0-1.243,1.243l3.2,3.2a.879.879,0,0,0,1.243-1.243Z" transform="translate(-346.963 -346.903)" fill="#304ffe"/>
  <path id="Path_476" data-name="Path 476" d="M327.41,412a.879.879,0,0,0-1.706.427l1.032,4.128a.879.879,0,0,0,1.706-.427Z" transform="translate(-306.6 -387.237)" fill="#304ffe"/>
</svg>
