<svg xmlns="http://www.w3.org/2000/svg" width="43.529" height="38.5" viewBox="0 0 43.529 38.5">
  <path id="trade" d="M40.32,4.867H29.281V3.65A3.654,3.654,0,0,0,25.631,0H15.9a3.654,3.654,0,0,0-3.65,3.65V4.867H1.217A1.22,1.22,0,0,0,0,6.083V32.85A3.654,3.654,0,0,0,3.65,36.5H37.879a3.654,3.654,0,0,0,3.65-3.65V6.1A1.181,1.181,0,0,0,40.32,4.867ZM14.681,3.65A1.218,1.218,0,0,1,15.9,2.433h9.733A1.218,1.218,0,0,1,26.848,3.65V4.867H14.681ZM38.624,7.3,34.846,18.635a1.215,1.215,0,0,1-1.154.832H26.848V18.25a1.217,1.217,0,0,0-1.217-1.217H15.9a1.217,1.217,0,0,0-1.217,1.217v1.217H7.837a1.215,1.215,0,0,1-1.154-.832L2.905,7.3ZM24.415,19.467V21.9h-7.3V19.467ZM39.1,32.85a1.218,1.218,0,0,1-1.217,1.217H3.65A1.218,1.218,0,0,1,2.434,32.85V13.581L4.375,19.4a3.645,3.645,0,0,0,3.462,2.5h6.844v1.217A1.217,1.217,0,0,0,15.9,24.333h9.733a1.217,1.217,0,0,0,1.217-1.217V21.9h6.844a3.645,3.645,0,0,0,3.462-2.5L39.1,13.581Zm0,0" transform="translate(1 1)" fill="#f1f1f1" stroke="#304ffe" stroke-width="2"/>
</svg>
