<svg id="verify" xmlns="http://www.w3.org/2000/svg" width="30" height="30" viewBox="0 0 30 30">
  <g id="Group_1229" data-name="Group 1229" transform="translate(10 10.625)">
    <g id="Group_1228" data-name="Group 1228">
      <path id="Path_477" data-name="Path 477" d="M139.511,136.368a1.25,1.25,0,0,0-1.767,0l-5.366,5.366-2.241-2.241a1.25,1.25,0,0,0-1.767,1.767l3.125,3.125a1.249,1.249,0,0,0,1.767,0l6.25-6.25A1.25,1.25,0,0,0,139.511,136.368Z" transform="translate(-128.002 -136.002)" fill="#304ffe"/>
    </g>
  </g>
  <g id="Group_1231" data-name="Group 1231" transform="translate(0 0)">
    <g id="Group_1230" data-name="Group 1230">
      <path id="Path_478" data-name="Path 478" d="M28.75,13.75A1.25,1.25,0,0,0,27.5,15a12.5,12.5,0,1,1-3.629-8.807,1.25,1.25,0,1,0,1.774-1.761A15,15,0,1,0,30,15,1.25,1.25,0,0,0,28.75,13.75Z" transform="translate(0 0)" fill="#304ffe"/>
    </g>
  </g>
</svg>
