<svg xmlns="http://www.w3.org/2000/svg" width="1919.959" height="345.597" viewBox="0 0 1919.959 345.597">
  <g id="bannerCut" transform="translate(0.001 -855)">
    <path id="Path_445" data-name="Path 445" d="M-4369-6049.919s13.585,36.891,44.816,60.73,80.1,34.628,80.1,34.628l1247.367,231.253s60.6,18.22,116.445,18.22,111.622-18.22,111.622-18.22,149.007-53.965,228.908-87.191l90.694-37.715v143.893H-4369Z" transform="translate(4369 6904.919)" fill="#f1f1f1"/>
    <path id="Path_446" data-name="Path 446" d="M-4369-5979.919s13.585,36.891,44.816,60.73,80.1,34.628,80.1,34.628l1247.367,161.253s60.6,18.22,116.445,18.22,111.622-18.22,111.622-18.22,149.007-53.965,228.908-87.191l90.694-37.715v143.893H-4369Z" transform="translate(4369 6904.919)" fill="#fff"/>
  </g>
</svg>
