<svg id="confirm" xmlns="http://www.w3.org/2000/svg" width="113" height="113" viewBox="0 0 113 113">
  <circle id="Ellipse_101" data-name="Ellipse 101" cx="52" cy="52" r="52" transform="translate(4 4)" fill="#00b8fe"/>
  <g id="Group_1178" data-name="Group 1178">
    <path id="Path_444" data-name="Path 444" d="M108.292,51.792a4.71,4.71,0,0,0-4.708,4.708A47.1,47.1,0,1,1,89.906,23.327,4.708,4.708,0,1,0,96.589,16.7,56.493,56.493,0,1,0,113,56.5,4.71,4.71,0,0,0,108.292,51.792Z" fill="#304ffe"/>
  </g>
  <g id="close_3_" data-name="close (3)" transform="translate(116 4.984)">
    <g id="Group_1183" data-name="Group 1183" transform="translate(-79 32.016)">
      <path id="Path_445" data-name="Path 445" d="M23.187,19.016,37.4,4.807a2.082,2.082,0,0,0,0-2.939L36.15.623a2.084,2.084,0,0,0-2.94,0L19,14.831,4.793.623a2.083,2.083,0,0,0-2.939,0L.608,1.868a2.08,2.08,0,0,0,0,2.939L14.817,19.016.608,33.225a2.084,2.084,0,0,0,0,2.94l1.245,1.245a2.083,2.083,0,0,0,2.939,0L19,23.2,33.21,37.409a2.062,2.062,0,0,0,1.469.607h0a2.062,2.062,0,0,0,1.47-.607L37.4,36.164a2.084,2.084,0,0,0,0-2.939Z" transform="translate(0 -0.016)" fill="#fff"/>
    </g>
  </g>
</svg>
